<?xml version="1.0" encoding="UTF-8"?>
<svg xmlns="http://www.w3.org/2000/svg" xmlns:xlink="http://www.w3.org/1999/xlink" width="75px" height="75px" viewBox="0 0 75 75" version="1.1">
<g id="surface1">
<path style=" stroke:none;fill-rule:nonzero;fill:rgb(0%,0%,0%);fill-opacity:1;" d="M 58.859375 30.25 C 58.652344 29.957031 58.316406 29.78125 57.964844 29.78125 L 51.152344 29.78125 L 51.152344 26.878906 C 51.152344 26.28125 50.65625 25.78125 50.054688 25.78125 L 25.371094 25.78125 C 24.769531 25.78125 24.273438 26.28125 24.273438 26.878906 L 24.273438 44.632812 C 24.273438 45.234375 24.769531 45.734375 25.371094 45.734375 L 28.476562 45.734375 C 29.046875 47.726562 30.894531 49.203125 33.0625 49.203125 C 35.230469 49.203125 37.074219 47.738281 37.648438 45.734375 L 49.820312 45.734375 C 50.390625 47.726562 52.234375 49.203125 54.40625 49.203125 C 56.574219 49.203125 58.417969 47.738281 58.988281 45.734375 L 61.261719 45.734375 C 61.859375 45.734375 62.359375 45.234375 62.359375 44.632812 L 62.359375 35.59375 C 62.359375 35.359375 62.285156 35.140625 62.152344 34.964844 Z M 60.175781 35.917969 L 55.253906 35.917969 L 55.253906 31.992188 L 57.40625 31.992188 Z M 26.46875 27.992188 L 48.953125 27.992188 L 48.953125 43.550781 L 37.75 43.550781 C 37.324219 41.335938 35.390625 39.667969 33.0625 39.667969 C 30.730469 39.667969 28.785156 41.335938 28.375 43.550781 L 26.46875 43.550781 Z M 33.0625 47.007812 C 31.640625 47.007812 30.484375 45.851562 30.484375 44.429688 C 30.484375 43.007812 31.640625 41.851562 33.0625 41.851562 C 34.484375 41.851562 35.640625 43.007812 35.640625 44.429688 C 35.640625 45.851562 34.484375 47.007812 33.0625 47.007812 Z M 54.417969 47.007812 C 53 47.007812 51.839844 45.851562 51.839844 44.429688 C 51.839844 43.007812 52.996094 41.851562 54.417969 41.851562 C 55.839844 41.851562 56.996094 43.007812 56.996094 44.429688 C 56.996094 45.851562 55.839844 47.007812 54.417969 47.007812 Z M 59.105469 43.550781 C 58.679688 41.335938 56.75 39.667969 54.417969 39.667969 C 53.160156 39.667969 52 40.164062 51.152344 40.972656 L 51.152344 31.992188 L 53.042969 31.992188 L 53.042969 37.015625 C 53.042969 37.617188 53.539062 38.117188 54.140625 38.117188 L 60.191406 38.117188 L 60.191406 43.550781 Z M 59.105469 43.550781 "/>
<path style=" stroke:none;fill-rule:nonzero;fill:rgb(0%,0%,0%);fill-opacity:1;" d="M 13.710938 27.992188 L 21.546875 27.992188 C 22.148438 27.992188 22.648438 27.496094 22.648438 26.894531 C 22.648438 26.292969 22.148438 25.796875 21.546875 25.796875 L 13.710938 25.796875 C 13.109375 25.796875 12.613281 26.292969 12.613281 26.894531 C 12.613281 27.496094 13.109375 27.992188 13.710938 27.992188 Z M 13.710938 27.992188 "/>
<path style=" stroke:none;fill-rule:nonzero;fill:rgb(0%,0%,0%);fill-opacity:1;" d="M 21.546875 29.796875 L 15.511719 29.796875 C 14.914062 29.796875 14.414062 30.292969 14.414062 30.894531 C 14.414062 31.492188 14.914062 31.992188 15.511719 31.992188 L 21.546875 31.992188 C 22.148438 31.992188 22.648438 31.492188 22.648438 30.894531 C 22.648438 30.292969 22.164062 29.796875 21.546875 29.796875 Z M 21.546875 29.796875 "/>
<path style=" stroke:none;fill-rule:nonzero;fill:rgb(0%,0%,0%);fill-opacity:1;" d="M 21.546875 33.792969 L 17.738281 33.792969 C 17.140625 33.792969 16.640625 34.292969 16.640625 34.890625 C 16.640625 35.492188 17.140625 35.992188 17.738281 35.992188 L 21.546875 35.992188 C 22.148438 35.992188 22.648438 35.492188 22.648438 34.890625 C 22.648438 34.292969 22.164062 33.792969 21.546875 33.792969 Z M 21.546875 33.792969 "/>
<path style=" stroke:none;fill-rule:nonzero;fill:rgb(0%,0%,0%);fill-opacity:1;" d="M 21.546875 37.792969 L 20.230469 37.792969 C 19.628906 37.792969 19.132812 38.289062 19.132812 38.890625 C 19.132812 39.492188 19.628906 39.992188 20.230469 39.992188 L 21.546875 39.992188 C 22.148438 39.992188 22.648438 39.492188 22.648438 38.890625 C 22.648438 38.289062 22.164062 37.792969 21.546875 37.792969 Z M 21.546875 37.792969 "/>
</g>
</svg>
