<?xml version="1.0" encoding="UTF-8"?>
<svg xmlns="http://www.w3.org/2000/svg" xmlns:xlink="http://www.w3.org/1999/xlink" width="75px" height="75px" viewBox="0 0 75 75" version="1.1">
<defs>
<clipPath id="clip1">
  <path d="M 0.191406 0.246094 L 74.722656 0.246094 L 74.722656 74.789062 L 0.191406 74.789062 Z M 0.191406 0.246094 "/>
</clipPath>
</defs>
<g id="surface1">
<g clip-path="url(#clip1)" clip-rule="nonzero">
<path style=" stroke:none;fill-rule:nonzero;fill:rgb(0%,0%,0%);fill-opacity:1;" d="M 74.230469 39.972656 C 74.328125 46.949219 74.453125 53.925781 74.5 60.902344 C 74.515625 63.453125 74.273438 66 74.25 68.550781 C 74.210938 72.140625 70.734375 74.292969 66.742188 74.355469 C 58.679688 74.488281 50.613281 74.648438 42.550781 74.613281 C 32.824219 74.570312 23.097656 74.371094 13.375 74.171875 C 11.125 74.082031 8.882812 73.886719 6.660156 73.585938 C 3.949219 73.269531 1.292969 70.738281 1.199219 68.339844 C 0.957031 62.28125 0.671875 56.222656 0.589844 50.164062 C 0.40625 36.832031 0.371094 23.5 0.195312 10.167969 C 0.167969 8.117188 0.230469 6.132812 1.285156 4.242188 C 2.011719 2.929688 3.003906 1.800781 4.792969 1.359375 C 5.582031 1.164062 6.402344 1.050781 7.226562 1.019531 C 10.246094 0.914062 13.273438 0.914062 16.292969 0.769531 C 26.730469 0.261719 37.164062 0.453125 47.601562 0.734375 C 49.082031 0.773438 50.566406 0.828125 52.046875 0.804688 C 53.066406 0.792969 54.046875 1.113281 54.777344 1.6875 C 59.65625 5.203125 64.53125 8.71875 69.402344 12.238281 C 70.113281 12.75 70.78125 13.304688 71.527344 13.773438 C 73.089844 14.753906 73.511719 16.09375 73.539062 17.601562 C 73.652344 23.375 73.792969 29.148438 73.902344 34.921875 C 73.933594 36.605469 73.90625 38.292969 73.90625 39.976562 Z M 49.242188 4.296875 C 48.210938 4.230469 47.335938 4.132812 46.460938 4.121094 C 38.992188 4.015625 31.519531 3.925781 24.050781 3.839844 C 20.671875 3.804688 17.292969 3.789062 13.917969 3.769531 C 12.199219 3.761719 10.480469 3.71875 8.769531 3.789062 C 6.324219 3.890625 5.605469 4.46875 5.167969 6.480469 C 4.765625 8.234375 4.671875 10.023438 4.894531 11.796875 C 5.03125 12.800781 5.101562 13.808594 5.105469 14.820312 C 5.140625 31.851562 5.171875 48.882812 5.191406 65.914062 C 5.175781 66.300781 5.195312 66.683594 5.253906 67.066406 C 5.691406 69.261719 7.113281 70.589844 10.0625 70.683594 C 21.503906 71.058594 32.949219 71.058594 44.394531 70.902344 C 50.144531 70.820312 55.898438 70.78125 61.648438 70.726562 C 63.070312 70.714844 64.496094 70.757812 65.914062 70.703125 C 68.464844 70.605469 69.65625 69.605469 69.632812 67.507812 C 69.589844 63.851562 69.472656 60.199219 69.382812 56.546875 C 69.328125 54.429688 69.285156 52.3125 69.195312 50.199219 C 69.003906 45.535156 68.695312 40.875 68.605469 36.207031 C 68.507812 31.015625 68.605469 25.816406 68.609375 20.621094 C 68.609375 20.25 68.566406 19.878906 68.542969 19.496094 C 68.347656 19.453125 68.144531 19.425781 67.945312 19.410156 C 64.328125 19.46875 60.710938 19.558594 57.097656 19.582031 C 56.03125 19.589844 54.964844 19.496094 53.925781 19.304688 C 51.519531 18.859375 50.785156 18.140625 50.546875 16.136719 C 50.351562 14.511719 50.210938 12.878906 50.03125 11.25 C 49.785156 9.003906 49.523438 6.757812 49.242188 4.296875 Z M 55.632812 16.105469 L 66.269531 15.566406 L 53.828125 6.394531 C 54.464844 9.8125 55.035156 12.878906 55.636719 16.105469 Z M 55.632812 16.105469 "/>
</g>
<path style=" stroke:none;fill-rule:nonzero;fill:rgb(0%,0%,0%);fill-opacity:1;" d="M 19.625 31.234375 C 19.734375 31.828125 19.882812 32.394531 19.933594 32.964844 C 19.980469 33.390625 19.941406 33.816406 19.820312 34.234375 C 19.726562 34.5625 19.496094 34.859375 19.167969 35.070312 C 18.84375 35.28125 18.4375 35.394531 18.019531 35.394531 C 17.601562 35.371094 17.203125 35.238281 16.882812 35.019531 C 16.566406 34.800781 16.335938 34.507812 16.234375 34.175781 C 16.140625 33.753906 16.09375 33.320312 16.101562 32.890625 C 16.082031 32.464844 16.097656 32.039062 16.097656 31.542969 C 15.351562 31.40625 14.65625 31.316406 13.992188 31.148438 C 13.078125 30.949219 12.191406 30.683594 11.332031 30.363281 C 10.308594 29.941406 9.941406 29.15625 10.25 28.445312 C 10.535156 27.800781 11.339844 27.441406 12.433594 27.523438 C 13.4375 27.597656 14.433594 27.761719 15.4375 27.789062 C 16.320312 27.816406 17.207031 27.761719 18.074219 27.625 C 18.648438 27.503906 19.179688 27.289062 19.648438 26.992188 C 19.957031 26.839844 20.195312 26.609375 20.328125 26.339844 C 20.460938 26.066406 20.480469 25.765625 20.382812 25.484375 C 20.300781 25.222656 20.125 24.992188 19.871094 24.816406 C 19.621094 24.640625 19.3125 24.535156 18.980469 24.511719 C 18.457031 24.441406 17.925781 24.421875 17.394531 24.460938 C 16.628906 24.503906 15.867188 24.640625 15.097656 24.683594 C 12.378906 24.832031 10.359375 23.316406 10.476562 21.101562 C 10.589844 18.914062 11.789062 17.238281 14.371094 16.34375 C 14.695312 16.230469 15.023438 16.128906 15.417969 16.003906 C 15.527344 15.414062 15.636719 14.800781 15.753906 14.191406 C 15.863281 13.605469 16.226562 13.210938 16.996094 13.144531 C 17.355469 13.097656 17.722656 13.15625 18.027344 13.316406 C 18.332031 13.472656 18.554688 13.71875 18.648438 14.003906 C 18.867188 14.644531 19.039062 15.296875 19.167969 15.957031 C 21.683594 16.867188 21.902344 17.144531 21.148438 18.703125 C 20.667969 18.636719 20.179688 18.59375 19.695312 18.574219 C 18.640625 18.574219 17.550781 18.480469 16.542969 18.664062 C 14.695312 18.996094 14.046875 19.925781 14.289062 21.746094 C 14.703125 21.746094 15.144531 21.761719 15.582031 21.742188 C 16.761719 21.6875 17.949219 21.527344 19.121094 21.574219 C 21.566406 21.671875 23.722656 22.992188 24.382812 24.71875 C 25.132812 26.6875 24.375 28.335938 22.539062 29.648438 C 21.710938 30.242188 20.695312 30.660156 19.625 31.234375 Z M 19.625 31.234375 "/>
<path style=" stroke:none;fill-rule:nonzero;fill:rgb(0%,0%,0%);fill-opacity:1;" d="M 35.109375 51.019531 C 41.160156 51.019531 47.210938 51.019531 53.257812 51.023438 C 53.96875 51.011719 54.679688 51.066406 55.375 51.1875 C 56.296875 51.371094 56.832031 51.933594 56.734375 52.503906 C 56.699219 52.796875 56.542969 53.066406 56.289062 53.277344 C 56.039062 53.488281 55.707031 53.625 55.347656 53.660156 C 54.535156 53.796875 53.707031 53.875 52.878906 53.894531 C 41.550781 53.910156 30.21875 53.914062 18.890625 53.902344 C 17.882812 53.902344 16.875 53.816406 15.875 53.738281 C 15.46875 53.707031 14.976562 53.675781 14.699219 53.480469 C 14.332031 53.226562 13.90625 52.796875 13.929688 52.46875 C 13.957031 52.144531 14.464844 51.773438 14.867188 51.566406 C 15.183594 51.40625 15.667969 51.433594 16.078125 51.429688 C 22.421875 51.332031 28.765625 51.242188 35.109375 51.15625 Z M 35.109375 51.019531 "/>
<path style=" stroke:none;fill-rule:nonzero;fill:rgb(0%,0%,0%);fill-opacity:1;" d="M 13.179688 46.867188 C 12.824219 45.796875 13.214844 45.375 14.179688 45.292969 C 15.59375 45.175781 17.007812 45.042969 18.425781 44.976562 C 29.546875 44.457031 40.667969 44.019531 51.8125 44.089844 C 52.996094 44.097656 54.179688 44.179688 55.34375 44.335938 C 56.441406 44.492188 56.914062 45.007812 56.820312 45.683594 C 56.730469 46.335938 56.089844 46.769531 55.050781 46.828125 C 54.460938 46.859375 53.867188 46.828125 53.273438 46.832031 C 40.648438 46.894531 28.023438 46.957031 15.398438 47.019531 C 14.65625 47.023438 13.917969 46.921875 13.179688 46.867188 Z M 13.179688 46.867188 "/>
<path style=" stroke:none;fill-rule:nonzero;fill:rgb(0%,0%,0%);fill-opacity:1;" d="M 13.515625 40.039062 C 13.410156 38.816406 13.480469 38.726562 14.480469 38.605469 C 14.660156 38.589844 14.835938 38.582031 15.015625 38.582031 C 19.632812 38.480469 24.253906 38.390625 28.875 38.277344 C 36.28125 38.101562 43.683594 37.902344 51.089844 37.730469 C 52.332031 37.703125 53.578125 37.765625 54.824219 37.804688 C 55.183594 37.789062 55.539062 37.886719 55.816406 38.078125 C 56.09375 38.269531 56.265625 38.542969 56.304688 38.835938 C 56.402344 39.359375 55.875 39.820312 54.972656 39.96875 C 54.390625 40.050781 53.796875 40.089844 53.203125 40.082031 C 48.402344 40.125 43.601562 40.140625 38.796875 40.199219 C 32.871094 40.269531 26.945312 40.386719 21.015625 40.457031 C 19.179688 40.476562 17.34375 40.417969 15.507812 40.347656 C 14.835938 40.28125 14.171875 40.179688 13.515625 40.039062 Z M 13.515625 40.039062 "/>
<path style=" stroke:none;fill-rule:nonzero;fill:rgb(0%,0%,0%);fill-opacity:1;" d="M 21.503906 61.566406 C 19.960938 61.566406 18.417969 61.574219 16.875 61.5625 C 16.460938 61.570312 16.046875 61.539062 15.640625 61.472656 C 14.925781 61.332031 14.417969 60.902344 14.542969 60.339844 C 14.632812 59.941406 15.113281 59.550781 15.527344 59.261719 C 15.753906 59.101562 16.203125 59.125 16.558594 59.105469 C 19.570312 58.917969 22.585938 58.730469 25.601562 58.566406 C 26.308594 58.527344 27.023438 58.535156 27.730469 58.59375 C 28.0625 58.613281 28.375 58.722656 28.617188 58.90625 C 28.863281 59.085938 29.023438 59.328125 29.078125 59.59375 C 29.25 60.222656 29.042969 60.800781 28.335938 61.082031 C 27.703125 61.335938 27.011719 61.484375 26.308594 61.515625 C 24.710938 61.578125 23.105469 61.539062 21.503906 61.539062 Z M 21.503906 61.566406 "/>
</g>
</svg>
