<?xml version="1.0" encoding="UTF-8"?>
<svg xmlns="http://www.w3.org/2000/svg" xmlns:xlink="http://www.w3.org/1999/xlink" width="75px" height="75px" viewBox="0 0 75 75" version="1.1">
<g id="surface1">
<path style=" stroke:none;fill-rule:nonzero;fill:rgb(0%,0%,0%);fill-opacity:1;" d="M 26.960938 15.1875 L 25.367188 15.1875 L 24.394531 16.769531 L 23.414062 15.1875 L 21.804688 15.1875 L 23.550781 17.886719 L 21.632812 20.8125 L 23.273438 20.8125 L 24.378906 19.089844 L 25.484375 20.8125 L 27.132812 20.8125 L 25.21875 17.917969 Z M 26.960938 15.1875 "/>
<path style=" stroke:none;fill-rule:nonzero;fill:rgb(0%,0%,0%);fill-opacity:1;" d="M 20.515625 15.226562 L 18.921875 15.226562 L 17.949219 16.804688 L 16.96875 15.226562 L 15.359375 15.226562 L 17.105469 17.921875 L 15.1875 20.847656 L 16.828125 20.847656 L 17.933594 19.128906 L 19.039062 20.847656 L 20.6875 20.847656 L 18.773438 17.953125 Z M 20.515625 15.226562 "/>
<path style=" stroke:none;fill-rule:nonzero;fill:rgb(0%,0%,0%);fill-opacity:1;" d="M 38.925781 20.8125 L 40.570312 20.8125 L 38.65625 17.917969 L 40.398438 15.1875 L 38.804688 15.1875 L 37.835938 16.769531 L 36.851562 15.1875 L 35.246094 15.1875 L 36.988281 17.886719 L 35.070312 20.8125 L 36.714844 20.8125 L 37.816406 19.089844 Z M 38.925781 20.8125 "/>
<path style=" stroke:none;fill-rule:nonzero;fill:rgb(0%,0%,0%);fill-opacity:1;" d="M 13.910156 15.1875 L 12.316406 15.1875 L 11.347656 16.769531 L 10.363281 15.1875 L 8.757812 15.1875 L 10.5 17.886719 L 8.582031 20.8125 L 10.222656 20.8125 L 11.328125 19.089844 L 12.433594 20.8125 L 14.082031 20.8125 L 12.167969 17.917969 Z M 13.910156 15.1875 "/>
<path style=" stroke:none;fill-rule:nonzero;fill:rgb(0%,0%,0%);fill-opacity:1;" d="M 33.734375 15.1875 L 32.140625 15.1875 L 31.171875 16.769531 L 30.1875 15.1875 L 28.582031 15.1875 L 30.324219 17.886719 L 28.40625 20.8125 L 30.046875 20.8125 L 31.152344 19.089844 L 32.257812 20.8125 L 33.90625 20.8125 L 31.992188 17.917969 Z M 33.734375 15.1875 "/>
<path style=" stroke:none;fill-rule:nonzero;fill:rgb(0%,0%,0%);fill-opacity:1;" d="M 20.347656 53.984375 L 29.320312 53.984375 L 29.320312 55.449219 L 20.347656 55.449219 Z M 20.347656 53.984375 "/>
<path style=" stroke:none;fill-rule:nonzero;fill:rgb(0%,0%,0%);fill-opacity:1;" d="M 20.347656 56.699219 L 29.320312 56.699219 L 29.320312 58.164062 L 20.347656 58.164062 Z M 20.347656 56.699219 "/>
<path style=" stroke:none;fill-rule:nonzero;fill:rgb(0%,0%,0%);fill-opacity:1;" d="M 3.316406 61.089844 L 5.980469 61.089844 L 5.980469 62.554688 L 3.316406 62.554688 Z M 3.316406 61.089844 "/>
<path style=" stroke:none;fill-rule:nonzero;fill:rgb(0%,0%,0%);fill-opacity:1;" d="M 69.019531 61.089844 L 71.683594 61.089844 L 71.683594 62.554688 L 69.019531 62.554688 Z M 69.019531 61.089844 "/>
<path style=" stroke:none;fill-rule:nonzero;fill:rgb(0%,0%,0%);fill-opacity:1;" d="M 16.753906 27.113281 L 18.21875 27.113281 L 18.21875 29.117188 L 16.753906 29.117188 Z M 16.753906 27.113281 "/>
<path style=" stroke:none;fill-rule:nonzero;fill:rgb(0%,0%,0%);fill-opacity:1;" d="M 18.21875 30.941406 L 16.753906 30.941406 L 16.753906 61.089844 L 7.914062 61.089844 L 7.914062 62.554688 L 52.84375 62.554688 L 52.84375 61.089844 L 18.21875 61.089844 Z M 18.21875 30.941406 "/>
<path style=" stroke:none;fill-rule:nonzero;fill:rgb(0%,0%,0%);fill-opacity:1;" d="M 61.960938 18.84375 L 47.195312 18.84375 L 47.195312 20.308594 L 60.496094 20.308594 L 60.496094 61.089844 L 54.851562 61.089844 L 54.851562 62.554688 L 67.085938 62.554688 L 67.085938 61.089844 L 61.960938 61.089844 Z M 61.960938 18.84375 "/>
<path style=" stroke:none;fill-rule:nonzero;fill:rgb(0%,0%,0%);fill-opacity:1;" d="M 16.753906 25.277344 L 18.21875 25.277344 L 18.21875 23.835938 L 37.019531 23.835938 L 45.277344 30.992188 L 45.277344 12.445312 L 4.246094 12.445312 L 4.246094 23.835938 L 16.753906 23.835938 Z M 5.710938 22.371094 L 5.710938 13.910156 L 43.8125 13.910156 L 43.8125 27.78125 L 37.566406 22.371094 Z M 5.710938 22.371094 "/>
<path style=" stroke:none;fill-rule:nonzero;fill:rgb(0%,0%,0%);fill-opacity:1;" d="M 59.035156 44.664062 L 46.652344 44.664062 L 46.652344 57.046875 L 59.035156 57.046875 Z M 57.570312 55.582031 L 48.117188 55.582031 L 48.117188 46.128906 L 57.570312 46.128906 Z M 57.570312 55.582031 "/>
<path style=" stroke:none;fill-rule:nonzero;fill:rgb(0%,0%,0%);fill-opacity:1;" d="M 49.847656 48.308594 L 55.839844 48.308594 L 55.839844 49.773438 L 49.847656 49.773438 Z M 49.847656 48.308594 "/>
<path style=" stroke:none;fill-rule:nonzero;fill:rgb(0%,0%,0%);fill-opacity:1;" d="M 49.847656 50.726562 L 55.839844 50.726562 L 55.839844 52.191406 L 49.847656 52.191406 Z M 49.847656 50.726562 "/>
<path style=" stroke:none;fill-rule:nonzero;fill:rgb(0%,0%,0%);fill-opacity:1;" d="M 35.730469 32.597656 L 37.195312 32.597656 L 37.195312 39.757812 L 35.730469 39.757812 Z M 35.730469 32.597656 "/>
<path style=" stroke:none;fill-rule:nonzero;fill:rgb(0%,0%,0%);fill-opacity:1;" d="M 57.570312 32.597656 L 59.035156 32.597656 L 59.035156 39.757812 L 57.570312 39.757812 Z M 57.570312 32.597656 "/>
<path style=" stroke:none;fill-rule:nonzero;fill:rgb(0%,0%,0%);fill-opacity:1;" d="M 44.605469 32.597656 L 45.777344 32.597656 L 45.777344 39.757812 L 44.605469 39.757812 Z M 44.605469 32.597656 "/>
<path style=" stroke:none;fill-rule:nonzero;fill:rgb(0%,0%,0%);fill-opacity:1;" d="M 52.867188 32.597656 L 54.332031 32.597656 L 54.332031 39.757812 L 52.867188 39.757812 Z M 52.867188 32.597656 "/>
<path style=" stroke:none;fill-rule:nonzero;fill:rgb(0%,0%,0%);fill-opacity:1;" d="M 49.703125 32.597656 L 51.167969 32.597656 L 51.167969 39.757812 L 49.703125 39.757812 Z M 49.703125 32.597656 "/>
<path style=" stroke:none;fill-rule:nonzero;fill:rgb(0%,0%,0%);fill-opacity:1;" d="M 56.539062 32.597656 L 56.980469 32.597656 L 56.980469 39.757812 L 56.539062 39.757812 Z M 56.539062 32.597656 "/>
<path style=" stroke:none;fill-rule:nonzero;fill:rgb(0%,0%,0%);fill-opacity:1;" d="M 55.621094 32.597656 L 56.058594 32.597656 L 56.058594 39.757812 L 55.621094 39.757812 Z M 55.621094 32.597656 "/>
<path style=" stroke:none;fill-rule:nonzero;fill:rgb(0%,0%,0%);fill-opacity:1;" d="M 51.796875 32.597656 L 52.238281 32.597656 L 52.238281 39.757812 L 51.796875 39.757812 Z M 51.796875 32.597656 "/>
<path style=" stroke:none;fill-rule:nonzero;fill:rgb(0%,0%,0%);fill-opacity:1;" d="M 48.644531 32.597656 L 49.085938 32.597656 L 49.085938 39.757812 L 48.644531 39.757812 Z M 48.644531 32.597656 "/>
<path style=" stroke:none;fill-rule:nonzero;fill:rgb(0%,0%,0%);fill-opacity:1;" d="M 47.164062 32.597656 L 47.601562 32.597656 L 47.601562 39.757812 L 47.164062 39.757812 Z M 47.164062 32.597656 "/>
<path style=" stroke:none;fill-rule:nonzero;fill:rgb(0%,0%,0%);fill-opacity:1;" d="M 39.234375 32.597656 L 39.671875 32.597656 L 39.671875 39.757812 L 39.234375 39.757812 Z M 39.234375 32.597656 "/>
<path style=" stroke:none;fill-rule:nonzero;fill:rgb(0%,0%,0%);fill-opacity:1;" d="M 38.160156 32.597656 L 38.597656 32.597656 L 38.597656 39.757812 L 38.160156 39.757812 Z M 38.160156 32.597656 "/>
<path style=" stroke:none;fill-rule:nonzero;fill:rgb(0%,0%,0%);fill-opacity:1;" d="M 43.40625 32.597656 L 43.84375 32.597656 L 43.84375 39.757812 L 43.40625 39.757812 Z M 43.40625 32.597656 "/>
<path style=" stroke:none;fill-rule:nonzero;fill:rgb(0%,0%,0%);fill-opacity:1;" d="M 40.933594 32.597656 L 42.398438 32.597656 L 42.398438 39.757812 L 40.933594 39.757812 Z M 40.933594 32.597656 "/>
</g>
</svg>
